<?xml version="1.0" encoding="UTF-8" standalone="no"?>
<!-- Created with Inkscape (http://www.inkscape.org/) -->

<svg
   width="46.583035mm"
   height="53.97501mm"
   viewBox="0 0 46.583035 53.97501"
   version="1.1"
   id="svg6449"
   inkscape:version="1.2.2 (b0a8486541, 2022-12-01)"
   sodipodi:docname="logo.svg"
   xmlns:inkscape="http://www.inkscape.org/namespaces/inkscape"
   xmlns:sodipodi="http://sodipodi.sourceforge.net/DTD/sodipodi-0.dtd"
   xmlns="http://www.w3.org/2000/svg"
   xmlns:svg="http://www.w3.org/2000/svg">
  <sodipodi:namedview
     id="namedview6451"
     pagecolor="#ffffff"
     bordercolor="#000000"
     borderopacity="0.25"
     inkscape:showpageshadow="2"
     inkscape:pageopacity="0.0"
     inkscape:pagecheckerboard="0"
     inkscape:deskcolor="#d1d1d1"
     inkscape:document-units="mm"
     showgrid="false"
     inkscape:zoom="2.2146394"
     inkscape:cx="-58.700303"
     inkscape:cy="167.7474"
     inkscape:window-width="1920"
     inkscape:window-height="1043"
     inkscape:window-x="0"
     inkscape:window-y="0"
     inkscape:window-maximized="1"
     inkscape:current-layer="layer1" />
  <defs
     id="defs6446" />
  <g
     inkscape:label="Layer 1"
     inkscape:groupmode="layer"
     id="layer1"
     transform="translate(-199.56188,-77.596463)">
    <path
       sodipodi:type="star"
       style="color:#000000;font-size:8.19584px;font-family:'Nimbus Roman';-inkscape-font-specification:'Nimbus Roman, ';display:inline;overflow:visible;visibility:visible;fill:#ffe680;fill-opacity:1;fill-rule:nonzero;stroke:#806600;stroke-width:25.0372;stroke-linecap:round;stroke-linejoin:miter;stroke-miterlimit:4;stroke-dasharray:none;stroke-dashoffset:0;stroke-opacity:1;marker:none;enable-background:accumulate"
       id="path17178"
       sodipodi:sides="6"
       sodipodi:cx="121.90476"
       sodipodi:cy="126.57602"
       sodipodi:r1="103.56153"
       sodipodi:r2="103.56153"
       sodipodi:arg1="-0.52327829"
       sodipodi:arg2="0.0003204856"
       inkscape:flatsided="true"
       inkscape:rounded="0"
       inkscape:randomized="0"
       d="m 211.60827,74.824 -0.0332,103.56153 -89.70351,51.75202 -89.670315,-51.80951 0.03319,-103.561527 89.703505,-51.752019 z"
       inkscape:transform-center-x="0.32645456"
       inkscape:transform-center-y="-1.460707"
       transform="matrix(0.22784689,0,0,0.2286752,195.07778,75.639173)" />
    <path
       style="font-size:8.19584px;font-family:'Nimbus Roman';-inkscape-font-specification:'Nimbus Roman, ';fill:#ffeeaa;stroke-width:0.0636532"
       d="m 238.042,88.73933 c -0.0341,-0.111493 -0.13663,-0.222985 -0.27349,-0.222985 -6.25556,-0.03708 -7.14433,5.872964 -7.14433,5.947436 -0.54699,3.271085 -5.23005,5.538499 -5.91366,5.575599 -0.0341,-0.0371 -0.10253,-0.07441 -0.17097,-0.11149 0.2394,-0.520377 0.58109,-1.709983 -0.20506,-3.159637 -0.9912,-1.858536 -2.63218,-2.044456 -3.96533,-2.193006 -0.68361,-0.07441 -1.26473,-0.14857 -1.57256,-0.408889 -0.2735,-0.222985 -0.41012,-0.66894 -0.54699,-1.152223 -0.17097,-0.594791 -0.37603,-1.301107 -0.99119,-1.561167 -0.54699,-0.260324 -1.33316,-0.07442 -2.42715,0.557452 -1.67504,0.929267 -2.80316,2.750695 -3.31578,5.241129 -0.3076,1.524063 -0.3076,2.862211 -0.2735,3.308191 -0.88871,0.70631 -1.70917,1.52406 -2.49533,2.45333 -0.2394,-0.0744 -0.44445,-0.11149 -0.6836,-0.11149 -1.36721,0 -2.4612,1.18959 -2.4612,2.67628 0,0.55746 0.13662,1.07782 0.41012,1.4867 -0.30759,0.66894 -0.13663,1.52406 0.41013,1.97004 1.64074,1.41255 4.58051,2.04445 7.24687,2.23037 h 0.0341 0.0341 c 0.44446,0.0371 0.92301,0.0371 1.33315,0.0371 1.26472,0 2.42714,-0.11149 3.17893,-0.2974 0.17097,-0.0371 0.3076,-0.0744 0.47856,-0.14857 0.37603,0.85486 1.70917,3.3826 4.40953,3.3826 0.82046,0 1.46976,-0.26032 1.88014,-0.81776 0.41013,-0.52037 0.61519,-1.22663 0.54699,-2.00708 -0.0684,-0.81775 -0.47855,-1.52406 -1.09398,-2.00708 -0.64955,-0.52038 -1.50413,-0.70631 -2.29029,-0.52038 -0.2394,0.0371 -0.47856,0.0744 -0.75204,0.11149 0.82047,-1.07781 1.29903,-2.52747 1.64075,-4.23745 0.23939,2.23037 1.36721,3.19668 2.29028,3.64266 0.37603,0.1859 0.78616,0.0744 1.05962,-0.26032 0.2735,-0.33448 0.3076,-0.78072 0.13664,-1.1896 -0.23941,-0.44597 -0.34194,-0.85486 -0.44446,-1.18959 3.2133,5.46408 6.63157,6.91374 8.99022,7.09959 h 0.0341 c 0.10253,0 0.20507,-0.0744 0.2394,-0.14857 0.0684,-0.11149 0.0341,-0.26032 -0.0341,-0.33447 0,0 -0.95713,-1.30111 -0.13662,-3.19668 0.95713,-2.1559 -0.58109,-5.79856 -2.49533,-7.39696 3.72593,-1.52406 3.58931,-5.612702 3.34991,-7.39696 -0.2735,-1.895637 0.34193,-3.791473 1.64074,-5.092313 0.10253,-0.111493 0.17096,-0.148571 0.17096,-0.185907 0.17169,-0.111493 0.20602,-0.260319 0.17169,-0.371812 z"
       id="path83" />
    <path
       d="m 216.36975,102.23228 h -0.0684 c 0,-0.0371 0.0341,-0.0371 0.0341,-0.0744 0.0341,-0.18591 0.0341,-0.37182 -0.0684,-0.52038 -0.10253,-0.18591 -0.2735,-0.33448 -0.44446,-0.33448 0,-0.0371 0.0341,-0.0371 0.0341,-0.0744 0.0341,-0.18591 0.0341,-0.37181 -0.0684,-0.52038 -0.0684,-0.14857 -0.20507,-0.29739 -0.37603,-0.33447 -0.17097,-0.0371 -0.34193,-0.0371 -0.47856,0.0744 -0.0684,0.0371 -0.10253,0.14857 -0.0684,0.22299 0.0341,0.0744 0.13663,0.11149 0.20506,0.0744 0.0684,-0.0371 0.17097,-0.0744 0.2735,-0.0371 0.10253,0.0371 0.17096,0.1115 0.20506,0.18591 0.0341,0.0744 0.0684,0.18591 0.0341,0.2974 -0.0341,0.11149 -0.10253,0.1859 -0.17097,0.22298 -0.0684,0.0371 -0.10253,0.14857 -0.0684,0.22299 0.0341,0.0744 0.13663,0.11149 0.20506,0.0744 0.17097,-0.11149 0.37603,-0.0371 0.47856,0.14857 0.0341,0.0744 0.0684,0.18591 0.0341,0.2974 -0.0341,0.11149 -0.10254,0.1859 -0.17097,0.22298 -0.0684,0.0371 -0.10253,0.14857 -0.0684,0.22299 0.0341,0.0744 0.13663,0.11149 0.20506,0.0744 0.0684,-0.0371 0.17097,-0.0744 0.2735,-0.0371 0.10253,0.0371 0.17096,0.1115 0.20506,0.18591 0.0341,0.0744 0.0684,0.18591 0.0341,0.2974 -0.0341,0.11149 -0.10253,0.18591 -0.17097,0.22298 -0.0672,-0.0376 -0.10134,0.0368 -0.0672,0.11124 0.0341,0.0744 0.13663,0.11149 0.20506,0.0744 0.10253,-0.0371 0.17097,-0.11149 0.2394,-0.22298 0.0341,-0.0744 0.0684,-0.1115 0.0684,-0.18591 0.0341,-0.18591 0.0341,-0.37181 -0.0684,-0.52038 -0.0684,-0.1859 -0.20506,-0.29765 -0.37603,-0.37181 z"
       id="path73"
       style="font-size:8.19584px;font-family:'Nimbus Roman';-inkscape-font-specification:'Nimbus Roman, ';fill:#806600;stroke-width:0.0636531" />
    <path
       d="m 216.91668,101.30301 h -0.0684 c 0,-0.0371 0.0341,-0.0371 0.0341,-0.0744 0.0341,-0.18591 0.0341,-0.37181 -0.0684,-0.52038 -0.0684,-0.14857 -0.20506,-0.29739 -0.37603,-0.33447 -0.17096,-0.0371 -0.34193,-0.0371 -0.47855,0.0744 -0.0684,0.0371 -0.10253,0.14857 -0.0684,0.22299 0.0341,0.0744 0.13663,0.11149 0.20506,0.0744 0.0684,-0.0371 0.17097,-0.0744 0.2735,-0.0371 0.10253,0.0371 0.17096,0.1115 0.20506,0.18591 0.0341,0.0744 0.0684,0.18591 0.0341,0.2974 -0.0341,0.11149 -0.10253,0.1859 -0.17097,0.22298 -0.0684,0.0371 -0.10253,0.14857 -0.0684,0.22299 0.0341,0.0744 0.13663,0.11149 0.20506,0.0744 0.0684,-0.0371 0.17097,-0.0744 0.2735,-0.0371 0.10253,0.0371 0.17097,0.11149 0.20506,0.18591 0.0341,0.0744 0.0684,0.18591 0.0341,0.2974 -0.0341,0.11149 -0.10253,0.18591 -0.17097,0.22298 -0.0684,0.0371 -0.10253,0.14857 -0.0684,0.22299 0.0341,0.0744 0.13663,0.11149 0.20506,0.0744 0.10254,-0.0371 0.17097,-0.11149 0.2394,-0.22298 0.0341,-0.0744 0.0684,-0.11149 0.0684,-0.18591 0.0341,-0.18591 0.0341,-0.37181 -0.0684,-0.52037 -0.10181,-0.29792 -0.23868,-0.40941 -0.37531,-0.44649 z"
       id="path75"
       style="font-size:8.19584px;font-family:'Nimbus Roman';-inkscape-font-specification:'Nimbus Roman, ';fill:#806600;stroke-width:0.0636531" />
    <path
       d="m 209.49889,104.23949 c -1.2306,0 -2.22179,1.07782 -2.22179,2.41597 0,1.33814 0.99119,2.41595 2.22179,2.41595 1.2306,0 2.2218,-1.07781 2.2218,-2.41595 0,-1.33788 -0.9912,-2.41597 -2.2218,-2.41597 z m 0,4.20036 c -0.92301,0 -1.64074,-0.81776 -1.64074,-1.78413 0,-1.00367 0.75204,-1.78412 1.64074,-1.78412 0.88871,-2.5e-4 1.67487,0.81748 1.67487,1.78412 0,1.00341 -0.75204,1.78413 -1.67487,1.78413 z"
       id="path77"
       style="font-size:8.19584px;font-family:'Nimbus Roman';-inkscape-font-specification:'Nimbus Roman, ';fill:#aa8800;stroke-width:0.0636531" />
    <path
       d="m 219.07024,108.73714 c -0.0684,0.0371 -0.13663,0.0744 -0.2394,0.14857 -0.0684,0.0371 -0.10253,0.14857 -0.0684,0.22299 0.0341,0.0371 0.0684,0.0744 0.13663,0.0744 h 0.0684 c 0.0684,-0.0371 0.17096,-0.0744 0.2394,-0.14857 0.0684,-0.0371 0.10253,-0.14857 0.0341,-0.22298 0,-0.0744 -0.10253,-0.11175 -0.17072,-0.0744 z"
       id="path79"
       style="font-size:8.19584px;font-family:'Nimbus Roman';-inkscape-font-specification:'Nimbus Roman, ';fill:#ffcc00;stroke-width:0.0636531" />
    <path
       d="m 220.23247,102.38096 c -0.0684,0.0371 -0.10253,0.14857 -0.0341,0.22299 0,0 0.71798,1.26373 0.68361,2.8249 0,1.11519 -0.47855,2.1559 -1.26472,2.89931 -0.0684,0.0371 -0.0684,0.14857 0,0.22298 0.0341,0.0371 0.0684,0.0371 0.10253,0.0371 0.0341,0 0.0684,0 0.10253,-0.0371 0.85459,-0.78071 1.33315,-1.93294 1.36721,-3.12226 0.0341,-1.63558 -0.6836,-2.93635 -0.71797,-2.97372 -0.0682,-0.0742 -0.17073,-0.11124 -0.23916,-0.0742 z"
       id="path81"
       style="font-size:8.19584px;font-family:'Nimbus Roman';-inkscape-font-specification:'Nimbus Roman, ';fill:#aa8800;stroke-width:0.0636531" />
    <path
       d="m 238.04201,88.739333 c -0.0341,-0.111492 -0.13663,-0.222985 -0.2735,-0.222985 -6.25556,-0.03708 -7.14432,5.872964 -7.14432,5.947437 -0.54699,3.271085 -5.23006,5.538495 -5.91367,5.575595 -0.0341,-0.0371 -0.10253,-0.07441 -0.17096,-0.111487 0.2394,-0.520376 0.58109,-1.709984 -0.20507,-3.159638 -0.99119,-1.858535 -2.63218,-2.044455 -3.96533,-2.193003 -0.6836,-0.07442 -1.26472,-0.148571 -1.57256,-0.40889 -0.27349,-0.222985 -0.41012,-0.66894 -0.54698,-1.152225 -0.17097,-0.59479 -0.37603,-1.301105 -0.9912,-1.561167 -0.54699,-0.260322 -1.33315,-0.07441 -2.42714,0.557453 -1.67505,0.929266 -2.80316,2.750695 -3.31579,5.241129 -0.30759,1.524064 -0.30759,2.862208 -0.2735,3.308188 -0.8887,0.70631 -1.70917,1.52406 -2.49532,2.45333 -0.2394,-0.0744 -0.44446,-0.11149 -0.68361,-0.11149 -1.36721,0 -2.4612,1.18959 -2.4612,2.67629 0,0.55745 0.13663,1.07781 0.41013,1.48669 -0.3076,0.66894 -0.13663,1.52406 0.41012,1.97004 1.64074,1.41255 4.58052,2.04446 7.24688,2.23038 h 0.0341 0.0341 c 0.44446,0.0371 0.92302,0.0371 1.33316,0.0371 1.26472,0 2.42714,-0.11149 3.17893,-0.2974 0.17096,-0.0371 0.30759,-0.0744 0.47855,-0.14857 0.37603,0.85486 1.70917,3.3826 4.40954,3.3826 0.82046,0 1.46976,-0.26032 1.88014,-0.81775 0.41013,-0.52038 0.61518,-1.22664 0.54699,-2.00709 -0.0684,-0.81775 -0.47855,-1.52406 -1.09399,-2.00708 -0.64954,-0.52037 -1.50413,-0.70631 -2.29029,-0.52037 -0.2394,0.0371 -0.47855,0.0744 -0.75203,0.11149 0.82046,-1.07782 1.29903,-2.52748 1.64074,-4.23746 0.2394,2.23037 1.36721,3.19668 2.29029,3.64266 0.37602,0.18591 0.78615,0.0744 1.05962,-0.26032 0.2735,-0.33448 0.30759,-0.78072 0.13663,-1.18959 -0.2394,-0.44597 -0.34193,-0.85486 -0.44446,-1.1896 3.2133,5.46409 6.63158,6.91374 8.99023,7.0996 h 0.0341 c 0.10253,0 0.20506,-0.0744 0.2394,-0.14857 0.0684,-0.1115 0.0341,-0.26032 -0.0341,-0.33448 0,0 -0.95714,-1.30111 -0.13663,-3.19668 0.95713,-2.15589 -0.58109,-5.79855 -2.49533,-7.39696 3.72593,-1.52406 3.58932,-5.6127 3.34991,-7.396958 -0.27349,-1.895635 0.34193,-3.791471 1.64074,-5.092312 0.10254,-0.111493 0.17097,-0.14857 0.17097,-0.185907 0.17168,-0.111491 0.20602,-0.26032 0.17168,-0.371811 z m -2.4612,5.687109 c 0.10253,0.743347 0.13662,1.412551 0.10253,2.007084 -2.25592,3.940284 -6.56321,4.274754 -9.09278,4.051804 1.12805,-0.14857 2.73473,-0.44597 4.27292,-1.189599 1.46977,-0.706308 2.97389,-1.598205 3.89691,-3.531145 0.0341,-0.111491 0.10253,-0.222984 0.17096,-0.334475 0.20507,-0.40889 0.41013,-0.892163 0.61518,-1.226632 0,0.07442 0,0.148568 0.0341,0.222983 z m -1.40134,10.147588 c -2.63218,0.18591 -5.23006,-1.07781 -6.83667,-2.08149 1.05962,0.40889 2.76879,0.96637 4.27292,0.96637 0.61518,0 1.19654,-0.0744 1.67504,-0.2974 0.3417,0.40915 0.6493,0.89217 0.88871,1.41255 z m 0.64954,1.74702 c -4.40977,-0.37155 -7.3836,-2.86194 -8.78512,-4.31159 0.0341,0 0.0684,0.0371 0.10253,0.0371 1.26472,0.92927 4.30705,2.86221 7.52034,2.86221 0.20506,0 0.44446,0 0.64955,-0.0371 0.20506,0.48304 0.37603,0.96637 0.51289,1.44939 z m -0.44445,3.94003 c -7.52034,-2.60188 -9.22951,-7.32262 -9.57135,-8.9953 0.2394,0.55745 0.75204,1.63557 1.7776,2.7878 1.36721,1.56116 3.8969,3.56851 8.23819,4.60922 -0.0341,0.0744 -0.0341,0.14857 -0.0684,0.22299 -0.2394,0.4833 -0.34193,0.96657 -0.37603,1.37525 z m -8.30656,-3.01076 c 0.13663,0.22298 0,0.44597 -0.0684,0.4833 l -0.0341,0.0371 c -1.16218,-0.81775 -1.81172,-2.1559 -1.94858,-3.97739 -0.0341,-0.40889 -0.0341,-0.78071 0,-1.11519 0.0684,1.41256 0.47856,3.27109 1.94858,4.38601 0.0343,0.0376 0.0684,0.11201 0.10253,0.18616 z m -0.54675,-2.7505 c 0,0 -0.0341,0.11149 -0.0341,0.33448 -0.6836,-1.15222 -0.88871,-2.34182 -0.92301,-3.15964 0.17096,0.63187 0.47855,1.59821 1.12805,2.63925 -0.0684,0 -0.13687,0.0744 -0.17097,0.18591 z m -1.2306,-2.67628 c 0.0684,0.96637 0.34193,2.26741 1.2306,3.53114 0.0341,0.2974 0.10253,0.66894 0.2394,1.07782 -1.36746,-1.30084 -1.50438,-3.38233 -1.47001,-4.60903 z m 0.95713,-0.26032 c 1.09399,1.3011 4.40953,4.64633 9.63971,5.0552 0.10253,0.63187 0.13663,1.22664 0,1.74702 -6.35811,-1.48669 -8.81931,-5.12961 -9.63971,-6.80222 z m 2.93977,-2.713395 c 1.53819,-0.966372 3.45246,-2.601881 4.03352,-4.720741 0.71797,-2.527471 2.01676,-3.865615 2.70036,-4.460413 0.58109,-0.222984 1.2306,-0.40889 1.98264,-0.483297 -0.82046,0.520376 -2.29029,1.932939 -3.58932,5.50119 -1.26472,3.456738 -4.64894,4.72074 -6.66576,5.166721 0.4788,-0.260061 1.02557,-0.594532 1.53844,-1.003407 z m 2.97389,-4.274494 c 0,-0.03708 0.44446,-2.824904 2.80316,-4.386004 -0.6836,0.780716 -1.50413,2.007081 -2.01676,3.865616 -0.30759,1.115186 -1.02556,2.08149 -1.84578,2.899309 0.54676,-0.743612 0.92277,-1.524062 1.05938,-2.378921 z m -10.04991,3.642658 c 0.9912,-0.03708 2.25616,0 3.14487,0.260319 0,0.4833 -0.10253,0.85486 -0.20506,1.077818 -0.61518,-0.371814 -1.64074,-0.929267 -2.93977,-1.338144 z m 2.90571,-0.854859 c 0.13663,0.297399 0.20506,0.557453 0.2394,0.817755 -1.29903,-0.371813 -3.2133,-0.260322 -4.17037,-0.185907 -0.2735,-0.03708 -0.58109,-0.111491 -0.88871,-0.148571 0.82028,-0.297657 2.39253,-0.632125 4.81967,-0.483297 z m -0.17097,-0.297399 c -3.11074,-0.185906 -4.75148,0.445969 -5.36691,0.743349 h -0.78615 c 0.8887,-0.4833 2.59787,-1.226634 5.50352,-1.635577 0.2394,0.222984 0.44446,0.520376 0.64954,0.892163 z m -0.99119,-1.152224 c -3.48677,0.520376 -5.23006,1.524064 -5.84548,1.970045 -0.3076,0.03708 -0.61518,0.07441 -0.92301,0.14857 0.61518,-0.668939 2.11931,-1.821429 5.46946,-2.676288 0.44446,0.111493 0.88871,0.297399 1.29903,0.557714 z m -2.05113,-0.669203 c -3.52088,1.003673 -4.81991,2.341818 -5.23005,2.936347 -0.2394,0.07442 -0.44446,0.148571 -0.68361,0.222985 0.61518,-0.854859 1.94858,-2.378921 4.37547,-3.382596 0.3076,0.07441 0.68361,0.111493 1.05963,0.14857 0.17096,0.0376 0.34169,0.07467 0.47855,0.07467 z m -1.98263,-0.371813 c -2.70036,1.226631 -3.99945,3.010757 -4.40953,3.717065 -0.13663,0.03708 -0.2394,0.111493 -0.37603,0.185907 0.37603,-0.966371 1.4357,-2.97372 4.03351,-4.53482 0.10253,0.185906 0.2394,0.334476 0.37603,0.445967 0.13687,0.07441 0.2735,0.148828 0.37603,0.185908 z m -1.12805,-1.635311 c 0.0684,0.260322 0.13663,0.483299 0.2394,0.743349 -3.0082,1.784122 -3.99946,4.200084 -4.27292,4.980799 -0.13663,0.07441 -0.3076,0.14857 -0.44446,0.260322 0.37603,-1.263737 1.57256,-4.423375 4.37547,-6.430458 0.0341,0.111235 0.0684,0.260063 0.10253,0.445969 z m -0.64955,-1.189593 c 0.17097,0.07441 0.3076,0.26032 0.41013,0.445969 -3.17893,2.230372 -4.34135,5.910068 -4.61488,6.913741 -0.10253,0.07441 -0.2394,0.14857 -0.34193,0.222985 0.20507,-1.412552 0.9912,-5.38968 3.58932,-7.545645 0.4106,-0.111491 0.75228,-0.148568 0.95738,-0.03708 z m -1.94833,0.520376 c 0.0684,-0.03708 0.10253,-0.07441 0.17097,-0.07441 -2.32435,2.45333 -2.93977,6.318945 -3.07638,7.35979 -0.13663,0.07441 -0.2735,0.185897 -0.41013,0.260317 0.0339,-1.524059 0.30736,-5.87296 3.31554,-7.54564 z m 4.17037,18.102107 c 0.10253,-0.0371 0.17097,-0.0744 0.2394,-0.11149 0.34194,0.55745 1.19654,1.93294 2.32435,2.86221 -1.50413,-0.59479 -2.29029,-2.1186 -2.56375,-2.7507 z m 3.38404,2.97372 c -1.29903,-0.78072 -2.42714,-2.52747 -2.83722,-3.19668 0.0684,-0.0371 0.13663,-0.0744 0.20506,-0.11149 0.54699,0.70631 2.29028,2.7507 4.47796,2.89931 -0.3076,0.2974 -0.78616,0.4833 -1.33315,0.4833 -0.20483,-0.0371 -0.37579,-0.0744 -0.51265,-0.0744 z m -2.2218,-3.60555 c 0.58108,0.48329 2.35871,1.82143 3.93096,1.82143 0.2394,0 0.44446,-0.0371 0.68361,-0.1115 0,0.44597 -0.10253,0.85486 -0.2735,1.15223 -2.11931,0 -3.8969,-2.04445 -4.47796,-2.7507 0.0343,-0.0371 0.0684,-0.0741 0.13687,-0.11149 z m 4.58051,1.41255 c -1.50413,0.4833 -3.62338,-1.00368 -4.34135,-1.59821 l 0.0684,-0.0744 c 0.44445,0.26032 1.53819,0.74335 2.6663,0.74335 0.37603,0 0.75203,-0.0744 1.12805,-0.18591 0.2394,0.2974 0.41013,0.70631 0.47855,1.11519 z m -2.70036,-1.93294 c 0.64954,-0.14857 1.33315,0 1.84578,0.44597 0.0684,0.0371 0.10253,0.11149 0.17096,0.14857 -1.12805,0.37181 -2.42714,-0.1115 -3.14487,-0.40889 0.41013,-0.0742 0.78616,-0.11124 1.12805,-0.18565 z m -4.17038,0.89216 c -0.95713,0.26032 -2.35871,0.33448 -3.86278,0.2974 0.54699,-0.85486 1.46976,-2.71339 0.64955,-5.09232 -0.44446,-1.26373 -1.12806,-2.23037 -2.08519,-2.78779 -0.13663,-0.0744 -0.30759,-0.0371 -0.37603,0.11149 -0.0684,0.14857 -0.0341,0.33448 0.10253,0.40889 0.82047,0.52038 1.46977,1.33814 1.84578,2.49043 0.88871,2.52747 -0.44445,4.38601 -0.82046,4.83225 -0.37603,-0.0371 -0.71797,-0.0744 -1.09399,-0.11149 -2.52963,-0.2974 -4.54639,-1.00367 -5.70862,-2.00708 -0.37603,-0.2974 -0.44446,-0.85486 -0.20506,-1.33814 v -0.0371 c 0.0684,-0.11149 0.0341,-0.26032 -0.0341,-0.33448 -0.2735,-0.37181 -0.41013,-0.81775 -0.41013,-1.3011 0,-1.15223 0.85459,-2.04446 1.88015,-2.04446 0.2394,0 0.44446,0.0371 0.6836,0.14857 0.10254,0.0371 0.2394,0 0.3076,-0.0744 1.57256,-1.89564 3.34991,-3.34523 5.26412,-4.274493 4.71761,-2.230372 8.85349,0.334476 9.87899,1.077813 -0.37603,0.52038 -1.16217,1.82143 -1.64074,4.2745 -0.61542,3.04812 -1.53819,5.05521 -4.37547,5.76151 z m 5.46922,-6.17039 c -0.0341,-0.52038 0.0341,-1.00368 0.13663,-1.4867 -0.0684,1.52406 0.20507,3.67996 1.74329,5.05521 -1.19605,-0.59479 -1.81147,-1.78439 -1.8799,-3.56851 z m 3.35015,1.74701 c 1.40158,1.59821 3.69181,3.34523 7.38361,4.60923 -0.0341,0.66894 0.13663,1.22664 0.3076,1.59821 -2.11955,-0.37155 -4.95653,-1.82123 -7.69126,-6.2075 z m 6.11883,-3.12226 c -1.33315,0.52037 -3.31579,0.0744 -4.78555,-0.37182 0.99119,0.0371 2.15361,-0.0744 3.58931,-0.44596 0.0684,-0.0371 0.13663,-0.0371 0.20507,-0.0744 0.34169,0.26032 0.6836,0.55771 0.99119,0.89216 z m -1.33315,-1.41255 c -3.65775,0.96637 -5.57196,0.0744 -6.46066,-0.59479 0.64955,0.14857 1.60662,0.37181 2.6663,0.48329 0.54699,0.0744 1.16218,0.1115 1.81172,0.1115 0.95713,0 2.01676,-0.1115 3.0082,-0.37182 -0.34193,0.14883 -0.68361,0.2974 -1.02556,0.37182 z m 2.15361,-1.11519 c -2.4612,1.11519 -5.60607,0.78072 -7.58871,0.40889 0.44446,0.0371 0.92301,0.0744 1.4357,0.0744 2.46121,0 5.77706,-0.66893 7.82799,-3.717062 -0.20506,1.56117 -0.8887,2.564843 -1.67486,3.233782 z m 1.60662,-6.579006 c -0.2735,0.371811 -0.58109,0.966369 -0.85459,1.561167 l -0.17096,0.334476 c -0.88871,1.858532 -2.32435,2.713391 -3.76029,3.419699 -1.36722,0.668939 -2.83723,0.966374 -3.89691,1.115184 2.08519,-0.483295 5.46946,-1.784123 6.73413,-5.315268 1.02556,-2.862208 2.18773,-4.274493 2.97389,-4.980801 -0.71773,1.077817 -1.09375,2.453064 -1.02532,3.865615 z"
       id="path83-6"
       style="font-size:8.19584px;font-family:'Nimbus Roman';-inkscape-font-specification:'Nimbus Roman, ';fill:#aa8800;stroke-width:0.0636531" />
    <path
       d="m 210.62694,106.65559 c 0,0.67723 -0.50502,1.22643 -1.12805,1.22643 -0.62305,0 -1.12805,-0.54916 -1.12805,-1.22643 0,-0.6775 0.50503,-1.22663 1.12805,-1.22663 0.62306,0 1.12805,0.54915 1.12805,1.22663"
       id="path85"
       style="font-size:8.19584px;font-family:'Nimbus Roman';-inkscape-font-specification:'Nimbus Roman, ';fill:#aa8800;stroke-width:0.0636531" />
    <g
       id="g9178"
       transform="matrix(1.1310081,0,0,0.98366923,-29.255169,1.8894477)">
      <g
         id="g804"
         style="font-size:8.19584px;font-family:'Nimbus Roman';-inkscape-font-specification:'Nimbus Roman, ';fill:#aa8800;stroke:#ffeeaa;stroke-width:2.31281;stroke-dasharray:none"
         transform="matrix(0.28222221,0,0,0.28222221,165.98438,163.67515)">
        <g
           aria-label="Babelmixr"
           transform="scale(0.77472819,1.2907753)"
           id="text6031"
           style="font-size:22.4554px;font-family:'Nimbus Roman';-inkscape-font-specification:'Nimbus Roman, ';fill:#aa8800">
          <path
             d="m 180.19121,-132.02825 h 12.46275 q 0.33683,0 0.58384,-0.24701 0.26946,-0.24701 0.26946,-0.58384 0,-0.35929 -0.26946,-0.58384 -0.24701,-0.24701 -0.58384,-0.24701 h -12.46275 z m 0,-5.47912 v 1.6617 h 12.4852 q 0.33683,0 0.58384,-0.22456 0.24701,-0.22455 0.24701,-0.58384 0,-0.33683 -0.26946,-0.58384 -0.24701,-0.26946 -0.58384,-0.26946 z m -1.07786,7.63483 q -0.44911,0 -0.76348,-0.31437 -0.31438,-0.31438 -0.31438,-0.76349 v -7.63483 q 0,-0.44911 0.31438,-0.76348 0.31437,-0.31438 0.76348,-0.31438 h 13.45078 q 0.62876,0 1.16768,0.24701 0.56139,0.22455 0.96559,0.62875 0.42665,0.4042 0.6512,0.96558 0.24701,0.53893 0.24701,1.16768 0,0.56139 -0.2021,1.05541 -0.17964,0.47156 -0.49401,0.8533 0.31437,0.38174 0.49401,0.87576 0.2021,0.47157 0.2021,1.0105 0,0.62875 -0.24701,1.16768 -0.22455,0.53893 -0.6512,0.94312 -0.4042,0.4042 -0.96559,0.65121 -0.53892,0.22455 -1.16768,0.22455 z"
             style="font-family:'Space Age';-inkscape-font-specification:'Space Age'"
             id="path6239" />
          <path
             d="m 199.74986,-130.27673 q -0.33683,0.40419 -0.83085,0.40419 -0.44911,0 -0.76348,-0.31437 -0.31438,-0.31438 -0.31438,-0.76349 0,-0.40419 0.22456,-0.6512 l 5.45666,-7.34292 q 0.38174,-0.51647 1.01049,-0.83085 0.62875,-0.33683 1.34733,-0.33683 0.67366,0 1.27995,0.29192 0.6063,0.29192 0.98804,0.8084 l 5.45666,7.298 q 0.13474,0.15719 0.22456,0.35929 0.0898,0.17964 0.0898,0.40419 0,0.44911 -0.31438,0.76349 -0.31437,0.31437 -0.76348,0.31437 -0.53893,0 -0.85331,-0.42665 l -5.2321,-6.98363 q -0.15719,-0.17964 -0.4042,-0.38174 -0.22456,-0.22455 -0.47156,-0.22455 -0.24701,0 -0.49402,0.22455 -0.22456,0.2021 -0.35929,0.38174 z"
             style="font-family:'Space Age';-inkscape-font-specification:'Space Age'"
             id="path6241" />
          <path
             d="m 230.78322,-132.02825 q 0.33684,0 0.58384,-0.24701 0.26947,-0.24701 0.26947,-0.58384 0,-0.35929 -0.26947,-0.58384 -0.247,-0.24701 -0.58384,-0.24701 h -12.46274 v 1.10031 q 0,0.22455 0.17964,0.4042 0.2021,0.15719 0.51647,0.15719 z m -14.61846,-6.55698 q 0,-0.44911 0.31437,-0.76348 0.31438,-0.31438 0.76349,-0.31438 h 13.45078 q 0.62875,0 1.16768,0.24701 0.56139,0.22455 0.96559,0.62875 0.42665,0.4042 0.6512,0.96558 0.24701,0.53893 0.24701,1.16768 0,0.56139 -0.2021,1.05541 -0.17964,0.47156 -0.49402,0.8533 0.31438,0.38174 0.49402,0.87576 0.2021,0.47157 0.2021,1.0105 0,0.62875 -0.24701,1.16768 -0.22455,0.53893 -0.6512,0.94312 -0.4042,0.4042 -0.96559,0.65121 -0.53893,0.22455 -1.16768,0.22455 h -11.78908 q -0.49402,0 -0.98804,-0.20209 -0.49402,-0.22456 -0.87576,-0.6063 -0.38174,-0.38174 -0.62875,-0.92067 -0.24701,-0.53893 -0.24701,-1.21259 v -2.02099 q 0,-0.6063 0.33683,-0.80839 0.35929,-0.2021 1.10031,-0.2021 h 13.20378 q 0.33683,0 0.58384,-0.22456 0.24701,-0.22455 0.24701,-0.58384 0,-0.33683 -0.26947,-0.58384 -0.247,-0.26946 -0.58384,-0.26946 h -13.5406 q -0.44911,0 -0.76349,-0.31438 -0.31437,-0.31437 -0.31437,-0.76348 z"
             style="font-family:'Space Age';-inkscape-font-specification:'Space Age'"
             id="path6243" />
          <path
             d="m 235.97042,-138.58523 q 0,-0.44911 0.31437,-0.76348 0.31438,-0.31438 0.76349,-0.31438 h 15.92088 q 0.4491,0 0.76348,0.31438 0.31438,0.31437 0.31438,0.76348 0,0.44911 -0.31438,0.76348 -0.31438,0.31438 -0.76348,0.31438 h -15.92088 q -0.44911,0 -0.76349,-0.31438 -0.31437,-0.31437 -0.31437,-0.76348 z m 2.73956,8.71269 q -0.49402,0 -0.98804,-0.20209 -0.49402,-0.22456 -0.87576,-0.6063 -0.38174,-0.38174 -0.62875,-0.92067 -0.24701,-0.53893 -0.24701,-1.21259 v -2.02099 q 0,-0.6063 0.33683,-0.80839 0.35929,-0.2021 1.10031,-0.2021 h 15.06758 q 0.44911,0 0.76348,0.31437 0.31438,0.31438 0.31438,0.76349 0,0.4491 -0.31438,0.76348 -0.31437,0.31438 -0.76348,0.31438 h -14.349 v 1.10031 q 0,0.22455 0.17964,0.4042 0.2021,0.15719 0.51647,0.15719 h 14.14691 q 0.4491,0 0.76348,0.31437 0.31438,0.31438 0.31438,0.76348 0,0.44911 -0.31438,0.76349 -0.31438,0.31437 -0.76348,0.31437 z"
             style="font-family:'Space Age';-inkscape-font-specification:'Space Age'"
             id="path6245" />
          <path
             d="m 259.36896,-129.87254 q -0.62875,0 -1.19014,-0.22455 -0.56138,-0.24701 -0.98803,-0.65121 -0.4042,-0.40419 -0.65121,-0.94312 -0.24701,-0.53893 -0.24701,-1.16768 v -5.72613 q 0,-0.44911 0.31438,-0.76348 0.31437,-0.31438 0.76348,-0.31438 0.42665,0 0.74103,0.31438 0.33683,0.31437 0.33683,0.76348 v 5.72613 q 0,0.33683 0.24701,0.58384 0.26946,0.24701 0.60629,0.24701 h 13.47324 q 0.44911,0 0.76349,0.31437 0.31437,0.31438 0.31437,0.76348 0,0.44911 -0.31437,0.76349 -0.31438,0.31437 -0.76349,0.31437 z"
             style="font-family:'Space Age';-inkscape-font-specification:'Space Age'"
             id="path6247" />
          <path
             d="m 295.05059,-130.9504 q 0,0.44911 -0.31437,0.76349 -0.31438,0.31437 -0.76349,0.31437 -0.44911,0 -0.76348,-0.31437 -0.31438,-0.31438 -0.31438,-0.76349 v -4.89527 q 0,-0.92067 -0.11227,-0.92067 -0.0898,0 -0.62875,0.60629 l -4.94019,5.61385 q -0.29192,0.33683 -0.71858,0.51648 -0.42665,0.15718 -0.92067,0.15718 -0.49402,0 -0.92067,-0.15718 -0.42665,-0.17965 -0.71857,-0.51648 l -4.94019,-5.61385 q -0.51647,-0.60629 -0.62875,-0.60629 -0.11228,0 -0.11228,0.92067 v 4.89527 q 0,0.44911 -0.31437,0.76349 -0.31438,0.31437 -0.76349,0.31437 -0.4491,0 -0.76348,-0.31437 -0.31438,-0.31438 -0.31438,-0.76349 v -6.55697 q 0,-0.89822 0.51648,-1.52697 0.51647,-0.62875 1.41469,-0.62875 0.53893,0 0.96558,0.26946 0.42665,0.26947 0.78594,0.65121 l 5.16474,5.88332 q 0.11228,0.11227 0.26947,0.24701 0.17964,0.11227 0.35928,0.11227 0.17965,0 0.33683,-0.11227 0.17965,-0.13474 0.29192,-0.24701 l 5.14229,-5.88332 h 0.0225 q 0.31437,-0.42665 0.76348,-0.67366 0.44911,-0.24701 0.98804,-0.24701 0.89821,0 1.41469,0.62875 0.51647,0.62875 0.51647,1.52697 z"
             style="font-family:'Space Age';-inkscape-font-specification:'Space Age'"
             id="path6249" />
          <path
             d="m 299.45186,-130.9504 q 0,0.44911 -0.31438,0.76349 -0.31437,0.31437 -0.76348,0.31437 -0.44911,0 -0.76348,-0.31437 -0.31438,-0.31438 -0.31438,-0.76349 v -7.63483 q 0,-0.44911 0.31438,-0.76348 0.31437,-0.31438 0.76348,-0.31438 0.44911,0 0.76348,0.31438 0.31438,0.31437 0.31438,0.76348 z"
             style="font-family:'Space Age';-inkscape-font-specification:'Space Age'"
             id="path6251" />
          <path
             d="m 319.32487,-137.73193 q -1.14523,1.0105 -2.11081,1.75153 -0.96558,0.71857 -1.81889,1.21259 0.85331,0.49402 1.79643,1.23504 0.94313,0.71858 2.13327,1.72907 0.17964,0.15719 0.29192,0.38174 0.13473,0.22456 0.13473,0.47156 0,0.44911 -0.31438,0.76349 -0.31437,0.31437 -0.76348,0.31437 -0.38174,0 -0.76348,-0.31437 -1.43715,-1.2575 -2.42519,-1.95362 -0.96558,-0.71857 -1.75152,-1.05541 -0.76348,-0.33683 -1.4596,-0.40419 -0.69612,-0.0898 -1.57188,-0.0898 h -0.49402 q -0.74102,0.0225 -1.36977,0.13473 -0.62876,0.0898 -1.36978,0.44911 -0.71858,0.35928 -1.6617,1.0554 -0.92068,0.69612 -2.268,1.8638 -0.17964,0.13473 -0.35929,0.22455 -0.17964,0.0898 -0.40419,0.0898 -0.44911,0 -0.76349,-0.31437 -0.31437,-0.31438 -0.31437,-0.76349 0,-0.247 0.11227,-0.47156 0.13474,-0.22455 0.31438,-0.38174 1.14523,-1.01049 2.11081,-1.72907 0.96558,-0.71857 1.81889,-1.21259 -0.85331,-0.49402 -1.81889,-1.21259 -0.94313,-0.74103 -2.11081,-1.77398 -0.17964,-0.15718 -0.31438,-0.38174 -0.11227,-0.22455 -0.11227,-0.47156 0,-0.44911 0.31437,-0.76348 0.31438,-0.31438 0.76349,-0.31438 0.22455,0 0.40419,0.0898 0.17965,0.0898 0.35929,0.22456 1.36978,1.21259 2.31291,1.9087 0.94312,0.69612 1.68415,1.05541 0.76349,0.33683 1.41469,0.44911 0.67366,0.0898 1.4596,0.0898 h 0.33683 q 0.87576,0 1.54943,-0.0674 0.67366,-0.0674 1.43714,-0.4042 0.76349,-0.33683 1.72907,-1.03294 0.98804,-0.71858 2.44764,-1.99853 0.38174,-0.31438 0.76348,-0.31438 0.44911,0 0.76348,0.31438 0.31438,0.31437 0.31438,0.76348 0,0.24701 -0.13473,0.47156 -0.11228,0.22456 -0.29192,0.38174 z"
             style="font-family:'Space Age';-inkscape-font-specification:'Space Age'"
             id="path6253" />
          <path
             d="m 336.43586,-133.68995 q 0.6063,0.38174 1.23505,0.83085 0.62875,0.42665 1.27995,0.94312 0.24701,0.17965 0.42666,0.42666 0.17964,0.22455 0.17964,0.53892 0,0.44911 -0.31437,0.76349 -0.31438,0.31437 -0.76349,0.31437 -0.38174,0 -0.76348,-0.31437 -0.92067,-0.67366 -1.88626,-1.30241 -0.96558,-0.62876 -2.02098,-1.12277 -1.03295,-0.49402 -2.15572,-0.78594 -1.12277,-0.29192 -2.33536,-0.29192 h -4.46863 q -0.29192,0.0449 -0.49402,0.26946 -0.20209,0.22455 -0.20209,0.56139 v 1.9087 q 0,0.44911 -0.33683,0.76349 -0.31438,0.31437 -0.74103,0.31437 -0.44911,0 -0.76349,-0.31437 -0.31437,-0.31438 -0.31437,-0.76349 v -2.15571 q 0,-0.56139 0.2021,-1.05541 0.22455,-0.51647 0.58384,-0.87576 0.35928,-0.38174 0.8533,-0.58384 0.49402,-0.22455 1.07786,-0.22455 h 11.90136 q 0.33683,0 0.58384,-0.22456 0.26947,-0.24701 0.26947,-0.60629 0,-0.33683 -0.26947,-0.58384 -0.24701,-0.24701 -0.58384,-0.24701 h -13.5406 q -0.44911,0 -0.76349,-0.31438 -0.31437,-0.31437 -0.31437,-0.76348 0,-0.44911 0.31437,-0.76348 0.31438,-0.31438 0.76349,-0.31438 h 13.45078 q 0.62875,0 1.16768,0.24701 0.56139,0.22455 0.96558,0.62875 0.42666,0.4042 0.65121,0.94313 0.24701,0.53893 0.24701,1.16768 0,0.62875 -0.24701,1.16768 -0.22455,0.53893 -0.65121,0.94313 -0.40419,0.40419 -0.96558,0.6512 -0.53893,0.22456 -1.16768,0.22456 h -0.0898 z"
             style="font-family:'Space Age';-inkscape-font-specification:'Space Age'"
             id="path6255" />
        </g>
      </g>
      <g
         aria-label="2"
         transform="matrix(0.21799631,0,0,0.36537029,165.98438,163.67515)"
         id="text6031-3"
         style="font-size:8.19584px;font-family:'Nimbus Roman';-inkscape-font-specification:'Nimbus Roman, ';display:inline;fill:#aa8800;stroke:#ffeeaa;stroke-width:2.31281;stroke-dasharray:none">
        <path
           d="m 348.46994,-139.04911 q 0.16392,0 0.27866,0.11474 0.11474,0.11474 0.11474,0.27866 0,0.16391 -0.11474,0.27866 -0.11474,0.11474 -0.27866,0.11474 h -5.62234 q -0.16392,0 -0.27866,-0.11474 -0.11474,-0.11475 -0.11474,-0.27866 v -0.7868 q 0,-0.2049 0.0738,-0.38521 0.0738,-0.1885 0.20489,-0.31964 0.13933,-0.13933 0.31145,-0.21309 0.1803,-0.082 0.3934,-0.082 h 4.35199 q 0.12293,0 0.21309,-0.082 0.0984,-0.0902 0.0984,-0.22129 0,-0.12294 -0.0984,-0.21309 -0.0902,-0.0902 -0.21309,-0.0902 h -4.94209 q -0.16392,0 -0.27866,-0.11474 -0.11474,-0.11474 -0.11474,-0.27866 0,-0.16392 0.11474,-0.27866 0.11474,-0.11474 0.27866,-0.11474 h 4.9093 q 0.22949,0 0.42619,0.0902 0.20489,0.082 0.35242,0.22948 0.15572,0.14752 0.23768,0.34422 0.0901,0.1967 0.0901,0.42619 0,0.22948 -0.0901,0.42618 -0.082,0.1967 -0.23768,0.34423 -0.14753,0.14752 -0.35242,0.23768 -0.1967,0.082 -0.42619,0.082 h -4.27003 q -0.10655,0.0164 -0.18031,0.0983 -0.0738,0.082 -0.0738,0.2049 v 0.30325 h 5.23714 z"
           style="font-family:'Space Age';-inkscape-font-specification:'Space Age'"
           id="path6258" />
      </g>
      <g
         aria-label="Babelmixr"
         transform="matrix(0.2186455,0,0,0.36428546,165.98438,163.67515)"
         id="text6031-35"
         style="font-size:22.4554px;font-family:'Nimbus Roman';-inkscape-font-specification:'Nimbus Roman, ';fill:#aa8800;stroke-width:7.07259">
        <path
           d="m 180.19121,-132.02825 h 12.46275 q 0.33683,0 0.58384,-0.24701 0.26946,-0.24701 0.26946,-0.58384 0,-0.35929 -0.26946,-0.58384 -0.24701,-0.24701 -0.58384,-0.24701 h -12.46275 z m 0,-5.47912 v 1.6617 h 12.4852 q 0.33683,0 0.58384,-0.22456 0.24701,-0.22455 0.24701,-0.58384 0,-0.33683 -0.26946,-0.58384 -0.24701,-0.26946 -0.58384,-0.26946 z m -1.07786,7.63483 q -0.44911,0 -0.76348,-0.31437 -0.31438,-0.31438 -0.31438,-0.76349 v -7.63483 q 0,-0.44911 0.31438,-0.76348 0.31437,-0.31438 0.76348,-0.31438 h 13.45078 q 0.62876,0 1.16768,0.24701 0.56139,0.22455 0.96559,0.62875 0.42665,0.4042 0.6512,0.96558 0.24701,0.53893 0.24701,1.16768 0,0.56139 -0.2021,1.05541 -0.17964,0.47156 -0.49401,0.8533 0.31437,0.38174 0.49401,0.87576 0.2021,0.47157 0.2021,1.0105 0,0.62875 -0.24701,1.16768 -0.22455,0.53893 -0.6512,0.94312 -0.4042,0.4042 -0.96559,0.65121 -0.53892,0.22455 -1.16768,0.22455 z"
           style="font-family:'Space Age';-inkscape-font-specification:'Space Age'"
           id="path6261" />
        <path
           d="m 199.74986,-130.27673 q -0.33683,0.40419 -0.83085,0.40419 -0.44911,0 -0.76348,-0.31437 -0.31438,-0.31438 -0.31438,-0.76349 0,-0.40419 0.22456,-0.6512 l 5.45666,-7.34292 q 0.38174,-0.51647 1.01049,-0.83085 0.62875,-0.33683 1.34733,-0.33683 0.67366,0 1.27995,0.29192 0.6063,0.29192 0.98804,0.8084 l 5.45666,7.298 q 0.13474,0.15719 0.22456,0.35929 0.0898,0.17964 0.0898,0.40419 0,0.44911 -0.31438,0.76349 -0.31437,0.31437 -0.76348,0.31437 -0.53893,0 -0.85331,-0.42665 l -5.2321,-6.98363 q -0.15719,-0.17964 -0.4042,-0.38174 -0.22456,-0.22455 -0.47156,-0.22455 -0.24701,0 -0.49402,0.22455 -0.22456,0.2021 -0.35929,0.38174 z"
           style="font-family:'Space Age';-inkscape-font-specification:'Space Age'"
           id="path6263" />
        <path
           d="m 230.78322,-132.02825 q 0.33684,0 0.58384,-0.24701 0.26947,-0.24701 0.26947,-0.58384 0,-0.35929 -0.26947,-0.58384 -0.247,-0.24701 -0.58384,-0.24701 h -12.46274 v 1.10031 q 0,0.22455 0.17964,0.4042 0.2021,0.15719 0.51647,0.15719 z m -14.61846,-6.55698 q 0,-0.44911 0.31437,-0.76348 0.31438,-0.31438 0.76349,-0.31438 h 13.45078 q 0.62875,0 1.16768,0.24701 0.56139,0.22455 0.96559,0.62875 0.42665,0.4042 0.6512,0.96558 0.24701,0.53893 0.24701,1.16768 0,0.56139 -0.2021,1.05541 -0.17964,0.47156 -0.49402,0.8533 0.31438,0.38174 0.49402,0.87576 0.2021,0.47157 0.2021,1.0105 0,0.62875 -0.24701,1.16768 -0.22455,0.53893 -0.6512,0.94312 -0.4042,0.4042 -0.96559,0.65121 -0.53893,0.22455 -1.16768,0.22455 h -11.78908 q -0.49402,0 -0.98804,-0.20209 -0.49402,-0.22456 -0.87576,-0.6063 -0.38174,-0.38174 -0.62875,-0.92067 -0.24701,-0.53893 -0.24701,-1.21259 v -2.02099 q 0,-0.6063 0.33683,-0.80839 0.35929,-0.2021 1.10031,-0.2021 h 13.20378 q 0.33683,0 0.58384,-0.22456 0.24701,-0.22455 0.24701,-0.58384 0,-0.33683 -0.26947,-0.58384 -0.247,-0.26946 -0.58384,-0.26946 h -13.5406 q -0.44911,0 -0.76349,-0.31438 -0.31437,-0.31437 -0.31437,-0.76348 z"
           style="font-family:'Space Age';-inkscape-font-specification:'Space Age'"
           id="path6265" />
        <path
           d="m 235.97042,-138.58523 q 0,-0.44911 0.31437,-0.76348 0.31438,-0.31438 0.76349,-0.31438 h 15.92088 q 0.4491,0 0.76348,0.31438 0.31438,0.31437 0.31438,0.76348 0,0.44911 -0.31438,0.76348 -0.31438,0.31438 -0.76348,0.31438 h -15.92088 q -0.44911,0 -0.76349,-0.31438 -0.31437,-0.31437 -0.31437,-0.76348 z m 2.73956,8.71269 q -0.49402,0 -0.98804,-0.20209 -0.49402,-0.22456 -0.87576,-0.6063 -0.38174,-0.38174 -0.62875,-0.92067 -0.24701,-0.53893 -0.24701,-1.21259 v -2.02099 q 0,-0.6063 0.33683,-0.80839 0.35929,-0.2021 1.10031,-0.2021 h 15.06758 q 0.44911,0 0.76348,0.31437 0.31438,0.31438 0.31438,0.76349 0,0.4491 -0.31438,0.76348 -0.31437,0.31438 -0.76348,0.31438 h -14.349 v 1.10031 q 0,0.22455 0.17964,0.4042 0.2021,0.15719 0.51647,0.15719 h 14.14691 q 0.4491,0 0.76348,0.31437 0.31438,0.31438 0.31438,0.76348 0,0.44911 -0.31438,0.76349 -0.31438,0.31437 -0.76348,0.31437 z"
           style="font-family:'Space Age';-inkscape-font-specification:'Space Age'"
           id="path6267" />
        <path
           d="m 259.36896,-129.87254 q -0.62875,0 -1.19014,-0.22455 -0.56138,-0.24701 -0.98803,-0.65121 -0.4042,-0.40419 -0.65121,-0.94312 -0.24701,-0.53893 -0.24701,-1.16768 v -5.72613 q 0,-0.44911 0.31438,-0.76348 0.31437,-0.31438 0.76348,-0.31438 0.42665,0 0.74103,0.31438 0.33683,0.31437 0.33683,0.76348 v 5.72613 q 0,0.33683 0.24701,0.58384 0.26946,0.24701 0.60629,0.24701 h 13.47324 q 0.44911,0 0.76349,0.31437 0.31437,0.31438 0.31437,0.76348 0,0.44911 -0.31437,0.76349 -0.31438,0.31437 -0.76349,0.31437 z"
           style="font-family:'Space Age';-inkscape-font-specification:'Space Age'"
           id="path6269" />
        <path
           d="m 295.05059,-130.9504 q 0,0.44911 -0.31437,0.76349 -0.31438,0.31437 -0.76349,0.31437 -0.44911,0 -0.76348,-0.31437 -0.31438,-0.31438 -0.31438,-0.76349 v -4.89527 q 0,-0.92067 -0.11227,-0.92067 -0.0898,0 -0.62875,0.60629 l -4.94019,5.61385 q -0.29192,0.33683 -0.71858,0.51648 -0.42665,0.15718 -0.92067,0.15718 -0.49402,0 -0.92067,-0.15718 -0.42665,-0.17965 -0.71857,-0.51648 l -4.94019,-5.61385 q -0.51647,-0.60629 -0.62875,-0.60629 -0.11228,0 -0.11228,0.92067 v 4.89527 q 0,0.44911 -0.31437,0.76349 -0.31438,0.31437 -0.76349,0.31437 -0.4491,0 -0.76348,-0.31437 -0.31438,-0.31438 -0.31438,-0.76349 v -6.55697 q 0,-0.89822 0.51648,-1.52697 0.51647,-0.62875 1.41469,-0.62875 0.53893,0 0.96558,0.26946 0.42665,0.26947 0.78594,0.65121 l 5.16474,5.88332 q 0.11228,0.11227 0.26947,0.24701 0.17964,0.11227 0.35928,0.11227 0.17965,0 0.33683,-0.11227 0.17965,-0.13474 0.29192,-0.24701 l 5.14229,-5.88332 h 0.0225 q 0.31437,-0.42665 0.76348,-0.67366 0.44911,-0.24701 0.98804,-0.24701 0.89821,0 1.41469,0.62875 0.51647,0.62875 0.51647,1.52697 z"
           style="font-family:'Space Age';-inkscape-font-specification:'Space Age'"
           id="path6271" />
        <path
           d="m 299.45186,-130.9504 q 0,0.44911 -0.31438,0.76349 -0.31437,0.31437 -0.76348,0.31437 -0.44911,0 -0.76348,-0.31437 -0.31438,-0.31438 -0.31438,-0.76349 v -7.63483 q 0,-0.44911 0.31438,-0.76348 0.31437,-0.31438 0.76348,-0.31438 0.44911,0 0.76348,0.31438 0.31438,0.31437 0.31438,0.76348 z"
           style="font-family:'Space Age';-inkscape-font-specification:'Space Age'"
           id="path6273" />
        <path
           d="m 319.32487,-137.73193 q -1.14523,1.0105 -2.11081,1.75153 -0.96558,0.71857 -1.81889,1.21259 0.85331,0.49402 1.79643,1.23504 0.94313,0.71858 2.13327,1.72907 0.17964,0.15719 0.29192,0.38174 0.13473,0.22456 0.13473,0.47156 0,0.44911 -0.31438,0.76349 -0.31437,0.31437 -0.76348,0.31437 -0.38174,0 -0.76348,-0.31437 -1.43715,-1.2575 -2.42519,-1.95362 -0.96558,-0.71857 -1.75152,-1.05541 -0.76348,-0.33683 -1.4596,-0.40419 -0.69612,-0.0898 -1.57188,-0.0898 h -0.49402 q -0.74102,0.0225 -1.36977,0.13473 -0.62876,0.0898 -1.36978,0.44911 -0.71858,0.35928 -1.6617,1.0554 -0.92068,0.69612 -2.268,1.8638 -0.17964,0.13473 -0.35929,0.22455 -0.17964,0.0898 -0.40419,0.0898 -0.44911,0 -0.76349,-0.31437 -0.31437,-0.31438 -0.31437,-0.76349 0,-0.247 0.11227,-0.47156 0.13474,-0.22455 0.31438,-0.38174 1.14523,-1.01049 2.11081,-1.72907 0.96558,-0.71857 1.81889,-1.21259 -0.85331,-0.49402 -1.81889,-1.21259 -0.94313,-0.74103 -2.11081,-1.77398 -0.17964,-0.15718 -0.31438,-0.38174 -0.11227,-0.22455 -0.11227,-0.47156 0,-0.44911 0.31437,-0.76348 0.31438,-0.31438 0.76349,-0.31438 0.22455,0 0.40419,0.0898 0.17965,0.0898 0.35929,0.22456 1.36978,1.21259 2.31291,1.9087 0.94312,0.69612 1.68415,1.05541 0.76349,0.33683 1.41469,0.44911 0.67366,0.0898 1.4596,0.0898 h 0.33683 q 0.87576,0 1.54943,-0.0674 0.67366,-0.0674 1.43714,-0.4042 0.76349,-0.33683 1.72907,-1.03294 0.98804,-0.71858 2.44764,-1.99853 0.38174,-0.31438 0.76348,-0.31438 0.44911,0 0.76348,0.31438 0.31438,0.31437 0.31438,0.76348 0,0.24701 -0.13473,0.47156 -0.11228,0.22456 -0.29192,0.38174 z"
           style="font-family:'Space Age';-inkscape-font-specification:'Space Age'"
           id="path6275" />
        <path
           d="m 336.43586,-133.68995 q 0.6063,0.38174 1.23505,0.83085 0.62875,0.42665 1.27995,0.94312 0.24701,0.17965 0.42666,0.42666 0.17964,0.22455 0.17964,0.53892 0,0.44911 -0.31437,0.76349 -0.31438,0.31437 -0.76349,0.31437 -0.38174,0 -0.76348,-0.31437 -0.92067,-0.67366 -1.88626,-1.30241 -0.96558,-0.62876 -2.02098,-1.12277 -1.03295,-0.49402 -2.15572,-0.78594 -1.12277,-0.29192 -2.33536,-0.29192 h -4.46863 q -0.29192,0.0449 -0.49402,0.26946 -0.20209,0.22455 -0.20209,0.56139 v 1.9087 q 0,0.44911 -0.33683,0.76349 -0.31438,0.31437 -0.74103,0.31437 -0.44911,0 -0.76349,-0.31437 -0.31437,-0.31438 -0.31437,-0.76349 v -2.15571 q 0,-0.56139 0.2021,-1.05541 0.22455,-0.51647 0.58384,-0.87576 0.35928,-0.38174 0.8533,-0.58384 0.49402,-0.22455 1.07786,-0.22455 h 11.90136 q 0.33683,0 0.58384,-0.22456 0.26947,-0.24701 0.26947,-0.60629 0,-0.33683 -0.26947,-0.58384 -0.24701,-0.24701 -0.58384,-0.24701 h -13.5406 q -0.44911,0 -0.76349,-0.31438 -0.31437,-0.31437 -0.31437,-0.76348 0,-0.44911 0.31437,-0.76348 0.31438,-0.31438 0.76349,-0.31438 h 13.45078 q 0.62875,0 1.16768,0.24701 0.56139,0.22455 0.96558,0.62875 0.42666,0.4042 0.65121,0.94313 0.24701,0.53893 0.24701,1.16768 0,0.62875 -0.24701,1.16768 -0.22455,0.53893 -0.65121,0.94313 -0.40419,0.40419 -0.96558,0.6512 -0.53893,0.22456 -1.16768,0.22456 h -0.0898 z"
           style="fill:#c00000"
           id="path6277" />
      </g>
      <path
         d="m 241.94954,112.87074 q 0.0357,0 0.0607,0.0419 0.025,0.0419 0.025,0.10182 0,0.0599 -0.025,0.10181 -0.025,0.0419 -0.0607,0.0419 h -1.22565 q -0.0357,0 -0.0607,-0.0419 -0.025,-0.0419 -0.025,-0.10181 V 112.727 q 0,-0.0749 0.0161,-0.14074 0.0161,-0.0689 0.0447,-0.11679 0.0304,-0.0509 0.0679,-0.0778 0.0393,-0.03 0.0858,-0.03 h 0.94872 q 0.0268,0 0.0464,-0.03 0.0214,-0.033 0.0214,-0.0809 0,-0.0449 -0.0214,-0.0778 -0.0197,-0.033 -0.0464,-0.033 h -1.07736 q -0.0357,0 -0.0607,-0.0419 -0.025,-0.0419 -0.025,-0.10182 0,-0.0599 0.025,-0.10181 0.025,-0.0419 0.0607,-0.0419 h 1.07021 q 0.05,0 0.0929,0.0329 0.0447,0.03 0.0768,0.0838 0.0339,0.0539 0.0518,0.12577 0.0196,0.0719 0.0196,0.15571 0,0.0838 -0.0196,0.15572 -0.0179,0.0719 -0.0518,0.12577 -0.0322,0.0539 -0.0768,0.0868 -0.0429,0.03 -0.0929,0.03 h -0.93085 q -0.0232,0.006 -0.0393,0.0359 -0.0161,0.03 -0.0161,0.0749 v 0.1108 h 1.14167 z"
         style="font-size:8.19584px;font-family:'Space Age';-inkscape-font-specification:'Space Age';fill:#c00000;stroke-width:0.728523"
         id="path6280" />
    </g>
  </g>
</svg>
